<?xml version="1.0" encoding="UTF-8" ?>
<!DOCTYPE svg PUBLIC "-//W3C//DTD SVG 1.1//EN" "http://www.w3.org/Graphics/SVG/1.1/DTD/svg11.dtd">
<svg width="537pt" height="349pt" viewBox="0 0 537 349" version="1.1" xmlns="http://www.w3.org/2000/svg">
<path fill="#ffffff" d=" M 0.00 0.00 L 537.00 0.00 L 537.00 349.00 L 0.00 349.00 L 0.00 0.00 Z" />
<path fill="#000000" d=" M 20.55 6.80 C 23.92 5.71 27.50 6.03 30.99 6.00 C 190.31 6.00 349.64 6.00 508.97 6.00 C 513.29 6.06 517.84 5.52 521.90 7.35 C 528.52 9.99 533.14 16.87 533.01 24.01 C 533.00 123.35 533.00 222.70 533.00 322.05 C 533.25 331.26 525.29 339.69 516.08 339.97 C 496.70 340.03 477.31 340.00 457.92 339.98 C 454.55 339.42 452.40 343.14 449.03 342.74 C 330.99 342.75 212.95 342.76 94.91 342.74 C 91.80 343.25 90.06 339.70 87.06 340.00 C 68.37 340.00 49.68 340.00 30.99 340.00 C 27.00 339.99 22.80 340.34 19.07 338.64 C 12.44 335.98 7.83 329.07 7.99 321.93 C 8.01 222.61 8.00 123.30 8.00 23.98 C 7.83 16.31 13.23 9.03 20.55 6.80 Z" />
<path fill="#58585a" d=" M 14.02 24.05 C 13.83 17.26 20.26 11.41 26.98 11.99 C 189.68 12.03 352.38 11.96 515.08 12.02 C 521.84 11.91 527.59 18.35 527.01 25.03 C 526.97 124.01 527.04 223.00 526.98 321.98 C 527.14 328.36 521.36 334.12 514.98 333.98 C 493.98 334.03 472.98 334.00 451.98 333.98 C 446.78 310.43 441.72 286.85 436.48 263.30 C 436.11 260.66 433.40 259.46 430.98 259.74 C 324.66 259.76 218.35 259.74 112.03 259.75 C 109.49 259.43 106.89 261.16 106.72 263.84 C 101.79 287.21 96.92 310.61 91.99 333.98 C 70.30 334.03 48.62 333.98 26.94 334.01 C 22.04 334.34 17.20 331.44 15.14 327.00 C 13.61 323.90 14.05 320.32 13.99 316.98 C 14.03 219.33 13.97 121.69 14.02 24.05 Z" />
<path fill="#484848" d=" M 510.12 14.09 C 516.73 12.48 524.59 18.80 523.44 25.88 C 523.94 34.28 513.11 39.12 506.50 34.64 C 498.16 30.02 500.82 15.82 510.12 14.09 Z" />
<path fill="#48484a" d=" M 17.97 19.91 C 20.37 15.38 26.17 13.92 30.92 14.81 C 33.63 16.29 37.29 17.82 37.58 21.34 C 36.41 20.91 35.20 20.62 33.98 20.97 C 32.14 19.09 29.76 17.48 26.99 17.95 C 23.41 17.79 21.06 21.04 19.74 23.95 C 24.90 23.99 30.06 24.09 35.22 23.89 C 36.55 23.70 37.09 22.20 38.09 21.47 C 39.03 26.05 38.58 31.44 34.57 34.47 C 32.50 36.99 29.08 36.46 26.19 36.39 C 21.84 36.47 17.92 33.08 16.80 28.99 C 16.63 25.97 16.02 22.51 17.97 19.91 Z" />
<path fill="#bdbec0" d=" M 19.74 23.95 C 21.06 21.04 23.41 17.79 26.99 17.95 C 29.76 17.48 32.14 19.09 33.98 20.97 C 34.22 21.33 34.71 22.04 34.95 22.40 L 35.05 22.91 L 35.22 23.89 C 30.06 24.09 24.90 23.99 19.74 23.95 Z" />
<path fill="#bdbec0" d=" M 504.81 23.13 C 506.11 19.03 510.87 16.15 515.02 17.86 C 517.61 18.48 519.07 20.88 520.14 23.11 C 515.03 23.27 509.92 23.23 504.81 23.13 Z" />
<path fill="#a8a9ad" d=" M 18.15 22.09 C 18.18 23.52 18.94 25.03 20.44 25.36 C 25.62 25.26 30.82 24.88 35.99 25.48 C 30.41 26.09 24.76 25.78 19.16 25.69 C 19.88 26.40 20.64 27.07 21.45 27.68 C 25.86 28.15 30.31 27.72 34.73 27.80 C 34.81 31.05 30.91 33.27 27.93 33.44 C 24.99 33.53 22.55 31.80 20.54 29.84 C 20.23 30.03 19.60 30.40 19.28 30.58 C 17.52 28.08 18.26 24.93 18.15 22.09 Z" />
<path fill="#0c0c0c" d=" M 34.95 22.40 C 34.98 22.52 35.03 22.78 35.05 22.91 L 34.95 22.40 Z" />
<path fill="#a8a9ad" d=" M 503.26 22.35 C 503.81 23.23 503.69 24.84 504.98 25.05 C 509.69 25.44 514.45 25.55 519.17 25.17 C 520.87 25.29 521.13 23.46 521.67 22.28 C 522.03 24.71 522.17 27.23 521.22 29.55 C 521.36 28.59 521.66 26.69 521.80 25.73 C 515.59 26.13 509.35 26.05 503.14 25.73 C 503.31 26.69 503.63 28.63 503.79 29.59 C 502.82 27.29 502.96 24.77 503.26 22.35 Z" />
<path fill="#000000" d=" M 503.14 25.73 C 509.35 26.05 515.59 26.13 521.80 25.73 C 521.66 26.69 521.36 28.59 521.22 29.55 L 519.70 28.42 C 519.85 28.07 520.15 27.36 520.31 27.01 C 515.10 26.99 509.90 26.99 504.70 27.01 C 504.80 27.34 504.99 28.02 505.09 28.36 L 503.79 29.59 C 503.63 28.63 503.31 26.69 503.14 25.73 Z" />
<path fill="#000000" d=" M 36.49 27.28 C 39.99 27.49 34.86 30.05 36.49 27.28 Z" />
<path fill="#a8a9ad" d=" M 504.70 27.01 C 509.90 26.99 515.10 26.99 520.31 27.01 C 520.15 27.36 519.85 28.07 519.70 28.42 C 518.11 30.61 515.90 33.00 512.99 33.02 C 509.67 33.36 506.77 31.02 505.09 28.36 C 504.99 28.02 504.80 27.34 504.70 27.01 Z" />
<path fill="#000000" d=" M 55.46 31.66 C 57.96 31.33 60.49 31.52 63.00 31.49 C 203.36 31.51 343.72 31.48 484.08 31.51 C 486.54 31.43 488.68 32.94 490.25 34.70 C 495.34 40.28 500.39 45.90 505.54 51.43 C 507.53 53.43 508.72 56.19 508.51 59.03 C 508.49 123.05 508.51 187.07 508.50 251.08 C 508.95 253.62 506.43 255.47 504.05 255.01 C 349.03 255.00 194.00 254.99 38.97 255.01 C 36.61 255.45 34.03 253.67 34.49 251.11 C 34.50 187.05 34.50 123.00 34.49 58.94 C 34.25 55.88 35.68 53.02 37.69 50.81 C 42.12 45.54 46.50 40.23 50.85 34.90 C 52.03 33.40 53.55 32.07 55.46 31.66 Z" />
<path fill="#3a3a3c" d=" M 54.19 33.30 C 55.40 32.74 56.67 32.49 58.02 32.55 C 198.34 32.53 338.67 32.59 479.00 32.52 C 481.94 32.72 485.52 31.81 487.88 34.07 C 493.38 39.27 498.02 45.28 503.35 50.65 C 505.55 52.87 507.78 55.56 507.46 58.93 C 507.44 122.95 507.50 186.98 507.43 251.01 C 507.80 253.64 505.04 254.29 503.02 254.01 C 348.33 253.97 193.64 254.04 38.96 253.98 C 37.07 254.39 35.29 252.91 35.55 250.95 C 35.54 186.96 35.56 122.98 35.54 58.99 C 35.46 56.69 36.19 54.42 37.68 52.66 C 41.90 47.25 46.51 42.16 50.74 36.77 C 51.78 35.53 52.74 34.11 54.19 33.30 Z" />
<path fill="#000000" d=" M 53.51 36.42 C 55.47 33.69 59.15 34.58 62.02 34.44 C 202.68 34.50 343.35 34.43 484.02 34.47 C 486.22 34.47 487.67 36.37 489.06 37.82 C 493.76 43.17 498.69 48.32 503.42 53.64 C 504.55 54.86 505.49 56.38 505.50 58.10 C 505.66 122.64 505.36 187.19 505.66 251.72 C 490.11 252.38 474.53 251.81 458.97 251.99 C 320.98 252.02 183.00 251.98 45.01 252.01 C 42.45 252.07 39.89 251.99 37.34 251.76 C 37.64 187.14 37.35 122.51 37.47 57.89 C 37.36 55.92 38.79 54.40 39.87 52.92 C 44.42 47.43 49.00 41.95 53.51 36.42 Z" />
<path fill="#000000" d=" M 510.69 34.07 C 511.68 33.40 513.37 33.48 514.28 34.30 C 514.19 36.17 510.79 35.74 510.69 34.07 Z" />
<path fill="#9a415c" d=" M 84.76 37.39 C 89.79 37.48 94.82 37.35 99.84 37.48 C 99.88 39.24 99.91 41.00 99.97 42.76 C 99.52 42.84 98.61 43.02 98.16 43.10 C 98.20 41.36 98.23 39.62 98.27 37.87 C 95.19 37.73 92.05 37.29 88.99 37.91 C 85.81 38.93 83.27 41.22 80.50 42.99 C 79.20 43.03 77.91 43.07 76.61 43.10 C 79.33 41.35 82.08 39.64 84.56 37.55 L 84.76 37.39 Z" />
<path fill="#9e1151" d=" M 339.56 38.16 C 338.57 38.26 336.56 37.98 337.75 36.67 C 345.97 38.51 354.58 36.78 362.96 37.54 C 360.30 38.91 357.83 40.60 355.43 42.35 C 346.23 48.92 336.67 54.96 327.26 61.24 C 303.07 77.40 278.75 93.36 254.57 109.54 C 254.24 109.73 253.57 110.11 253.24 110.30 C 252.57 110.20 251.25 110.01 250.58 109.91 C 266.73 98.52 283.49 88.00 299.84 76.89 C 316.72 65.68 333.66 54.57 350.48 43.26 C 353.41 41.88 356.24 40.21 358.57 37.92 C 352.25 37.54 345.84 37.15 339.56 38.16 Z" />
<path fill="#f6a4b0" d=" M 42.15 55.06 C 47.05 49.18 51.79 43.16 56.86 37.44 C 66.09 37.61 75.33 37.39 84.56 37.55 C 82.08 39.64 79.33 41.35 76.61 43.10 L 76.07 43.12 C 70.48 43.23 64.83 42.47 59.28 43.31 C 56.91 45.29 55.31 48.01 53.27 50.30 C 50.40 53.95 46.46 57.14 45.60 61.95 C 45.50 62.31 45.31 63.03 45.22 63.39 C 43.27 63.46 42.33 65.39 40.56 65.87 C 40.81 62.28 39.41 57.99 42.15 55.06 Z" />
<path fill="#df5972" d=" M 80.50 42.99 C 83.27 41.22 85.81 38.93 88.99 37.91 C 92.05 37.29 95.19 37.73 98.27 37.87 C 98.23 39.62 98.20 41.36 98.16 43.10 C 92.27 42.94 86.38 43.02 80.50 42.99 Z" />
<path fill="#f6a4af" d=" M 99.84 37.48 C 106.80 37.55 113.75 37.44 120.71 37.54 C 117.82 39.30 114.88 40.99 111.85 42.50 C 107.88 44.23 104.06 46.25 100.19 48.18 C 100.11 46.37 100.03 44.56 99.97 42.76 C 99.91 41.00 99.88 39.24 99.84 37.48 Z" />
<path fill="#df5972" d=" M 120.71 37.54 C 130.27 37.61 139.83 37.27 149.38 37.68 C 147.06 39.64 144.49 41.29 141.77 42.63 C 141.14 42.94 140.50 43.23 139.86 43.52 C 138.49 42.88 137.00 42.87 135.54 43.06 C 128.83 42.95 122.12 43.17 115.42 42.81 C 114.53 42.73 112.74 42.57 111.85 42.50 C 114.88 40.99 117.82 39.30 120.71 37.54 Z" />
<path fill="#f17e9d" d=" M 149.38 37.68 C 152.59 37.41 155.82 37.50 159.04 37.50 C 215.03 37.50 271.02 37.50 327.00 37.50 C 329.92 37.53 332.84 37.58 335.75 37.31 C 335.99 37.95 336.46 39.23 336.70 39.87 C 334.27 40.59 331.88 41.46 329.78 42.90 L 328.96 43.21 C 291.97 42.68 254.97 43.13 217.98 42.97 C 194.31 42.98 170.64 43.00 146.97 43.01 C 145.23 42.96 143.50 42.80 141.77 42.63 C 144.49 41.29 147.06 39.64 149.38 37.68 Z" />
<path fill="#e05972" d=" M 339.56 38.16 C 345.84 37.15 352.25 37.54 358.57 37.92 C 356.24 40.21 353.41 41.88 350.48 43.26 C 344.84 42.89 339.18 42.82 333.55 43.32 L 333.78 42.82 C 334.99 40.89 337.09 39.05 339.51 39.94 L 338.48 38.34 L 339.56 38.16 Z" />
<path fill="#f6a4b0" d=" M 355.43 42.35 C 357.83 40.60 360.30 38.91 362.96 37.54 C 402.95 37.45 442.96 37.52 482.96 37.50 C 484.51 37.20 485.45 38.67 486.43 39.58 C 491.30 45.01 496.28 50.33 501.16 55.76 C 502.36 56.85 502.58 58.50 502.51 60.05 C 502.51 74.65 502.46 89.26 502.54 103.87 C 500.97 104.85 499.40 105.83 497.83 106.81 C 497.36 104.91 496.92 102.98 496.97 101.01 C 497.10 88.69 496.89 76.38 497.06 64.06 C 497.00 62.05 497.25 59.75 495.72 58.18 C 491.45 52.89 486.71 47.98 481.91 43.19 C 478.30 42.67 474.64 43.02 471.01 42.98 C 434.69 43.03 398.36 42.95 362.04 43.04 C 359.81 43.09 357.60 42.79 355.43 42.35 Z" />
<path fill="#f05a88" d=" M 139.86 43.52 C 140.50 43.23 141.14 42.94 141.77 42.63 C 143.50 42.80 145.23 42.96 146.97 43.01 C 170.64 43.00 194.31 42.98 217.98 42.97 C 254.97 43.13 291.97 42.68 328.96 43.21 C 295.73 65.55 262.11 87.32 228.73 109.44 C 228.42 109.65 227.81 110.07 227.51 110.28 C 221.01 109.76 214.49 110.08 207.99 109.99 C 203.37 110.03 198.70 109.58 194.14 110.57 C 194.53 108.73 194.81 106.86 194.79 104.97 C 194.68 91.05 194.77 77.13 194.74 63.21 C 149.18 91.84 103.67 120.53 58.12 149.17 C 54.13 151.65 50.25 154.31 46.10 156.51 C 45.82 135.68 46.08 114.84 45.98 94.00 C 45.86 88.93 46.48 83.78 45.44 78.77 L 45.18 77.35 C 46.46 77.68 47.64 77.49 48.72 76.76 C 62.97 67.99 76.91 58.69 91.37 50.27 C 91.36 57.01 90.56 63.71 90.65 70.45 C 107.26 61.86 123.39 52.36 139.86 43.52 Z" />
<path fill="#f48f9f" d=" M 327.26 61.24 C 336.67 54.96 346.23 48.92 355.43 42.35 C 357.60 42.79 359.81 43.09 362.04 43.04 C 398.36 42.95 434.69 43.03 471.01 42.98 C 474.64 43.02 478.30 42.67 481.91 43.19 C 486.71 47.98 491.45 52.89 495.72 58.18 C 497.25 59.75 497.00 62.05 497.06 64.06 C 496.89 76.38 497.10 88.69 496.97 101.01 C 496.92 102.98 497.36 104.91 497.83 106.81 C 497.32 107.12 496.81 107.43 496.31 107.75 C 475.13 121.38 454.17 135.37 432.96 148.96 C 438.33 133.68 444.11 118.54 449.34 103.21 C 438.13 110.12 427.31 117.66 416.38 125.00 C 406.98 115.86 394.17 109.95 380.94 110.03 C 340.96 109.95 300.98 110.03 260.99 109.99 C 258.84 109.95 256.70 109.76 254.57 109.54 C 278.75 93.36 303.07 77.40 327.26 61.24 Z" />
<path fill="#f48f9f" d=" M 59.28 43.31 C 64.83 42.47 70.48 43.23 76.07 43.12 C 65.86 49.31 55.88 55.89 45.60 61.95 C 46.46 57.14 50.40 53.95 53.27 50.30 C 55.31 48.01 56.91 45.29 59.28 43.31 Z" />
<path fill="#d91b5c" d=" M 76.07 43.12 L 76.61 43.10 C 77.91 43.07 79.20 43.03 80.50 42.99 C 86.38 43.02 92.27 42.94 98.16 43.10 C 97.82 45.88 97.87 48.69 97.99 51.48 C 104.07 49.19 109.92 46.25 115.42 42.81 C 122.12 43.17 128.83 42.95 135.54 43.06 C 133.10 44.91 130.43 46.42 127.69 47.78 C 116.07 54.11 104.60 60.70 92.92 66.92 C 92.56 59.99 93.68 53.12 93.75 46.21 C 77.74 55.87 62.02 66.02 46.10 75.84 C 46.05 72.03 46.12 68.21 45.62 64.42 C 45.61 63.80 45.60 62.57 45.60 61.95 C 55.88 55.89 65.86 49.31 76.07 43.12 Z" />
<path fill="#a61454" d=" M 98.16 43.10 C 98.61 43.02 99.52 42.84 99.97 42.76 C 100.03 44.56 100.11 46.37 100.19 48.18 C 104.06 46.25 107.88 44.23 111.85 42.50 C 112.74 42.57 114.53 42.73 115.42 42.81 C 109.92 46.25 104.07 49.19 97.99 51.48 C 97.87 48.69 97.82 45.88 98.16 43.10 Z" />
<path fill="#9f1052" d=" M 135.54 43.06 C 137.00 42.87 138.49 42.88 139.86 43.52 C 123.39 52.36 107.26 61.86 90.65 70.45 C 90.56 63.71 91.36 57.01 91.37 50.27 C 76.91 58.69 62.97 67.99 48.72 76.76 C 47.64 77.49 46.46 77.68 45.18 77.35 C 45.41 76.97 45.87 76.22 46.10 75.84 C 62.02 66.02 77.74 55.87 93.75 46.21 C 93.68 53.12 92.56 59.99 92.92 66.92 C 104.60 60.70 116.07 54.11 127.69 47.78 C 130.43 46.42 133.10 44.91 135.54 43.06 Z" />
<path fill="#9f1052" d=" M 328.96 43.21 L 329.78 42.90 C 330.82 42.76 332.91 42.49 333.96 42.36 C 322.31 50.69 310.13 58.24 298.21 66.18 C 277.74 79.74 257.19 93.20 236.69 106.72 C 235.27 107.71 233.92 108.78 232.52 109.79 C 232.19 109.89 231.51 110.09 231.17 110.19 C 230.56 110.00 229.34 109.62 228.73 109.44 C 262.11 87.32 295.73 65.55 328.96 43.21 Z" />
<path fill="#d91b5c" d=" M 333.96 42.36 L 333.78 42.82 L 333.55 43.32 C 339.18 42.82 344.84 42.89 350.48 43.26 C 333.66 54.57 316.72 65.68 299.84 76.89 C 283.49 88.00 266.73 98.52 250.58 109.91 C 250.34 110.00 249.86 110.17 249.62 110.25 C 243.93 109.82 238.22 110.11 232.52 109.79 C 233.92 108.78 235.27 107.71 236.69 106.72 C 257.19 93.20 277.74 79.74 298.21 66.18 C 310.13 58.24 322.31 50.69 333.96 42.36 Z" />
<path fill="#9f1152" d=" M 58.12 149.17 C 103.67 120.53 149.18 91.84 194.74 63.21 C 194.77 77.13 194.68 91.05 194.79 104.97 C 194.81 106.86 194.53 108.73 194.14 110.57 C 194.07 110.41 193.91 110.08 193.83 109.92 C 192.25 107.57 192.81 104.67 192.73 102.01 C 192.79 90.39 192.74 78.77 192.74 67.15 C 171.11 80.28 149.89 94.09 128.39 107.45 C 106.58 121.31 84.57 134.85 62.79 148.75 C 57.17 152.16 51.74 155.87 46.00 159.07 C 46.02 158.57 46.06 157.56 46.08 157.06 L 46.10 156.51 C 50.25 154.31 54.13 151.65 58.12 149.17 Z" />
<path fill="#df5972" d=" M 40.54 66.56 C 42.54 66.16 43.30 63.06 45.62 64.42 C 46.12 68.21 46.05 72.03 46.10 75.84 C 44.39 77.37 43.25 80.35 40.50 79.92 C 40.51 75.46 40.47 71.01 40.54 66.56 Z" />
<path fill="#d91b5c" d=" M 128.39 107.45 C 149.89 94.09 171.11 80.28 192.74 67.15 C 192.74 78.77 192.79 90.39 192.73 102.01 C 192.81 104.67 192.25 107.57 193.83 109.92 C 190.16 110.05 186.50 110.02 182.83 109.97 C 183.60 101.25 183.61 92.48 183.90 83.74 C 172.36 89.98 161.52 97.49 150.26 104.24 C 119.38 123.38 88.56 142.63 57.67 161.78 C 53.91 164.31 49.88 166.41 46.21 169.07 C 46.03 165.88 45.92 162.69 45.98 159.49 L 46.00 159.07 C 51.74 155.87 57.17 152.16 62.79 148.75 C 84.57 134.85 106.58 121.31 128.39 107.45 Z" />
<path fill="#f17e9d" d=" M 40.57 80.52 C 42.42 80.57 43.60 79.13 44.82 77.98 L 45.44 78.77 C 46.48 83.78 45.86 88.93 45.98 94.00 C 46.08 114.84 45.82 135.68 46.10 156.51 L 46.08 157.06 C 44.24 158.11 42.40 159.16 40.56 160.20 C 40.46 133.64 40.45 107.08 40.57 80.52 Z" />
<path fill="#9f1051" d=" M 150.26 104.24 C 161.52 97.49 172.36 89.98 183.90 83.74 C 183.61 92.48 183.60 101.25 182.83 109.97 C 182.65 111.81 182.55 113.65 182.45 115.49 C 182.17 115.49 181.61 115.49 181.33 115.49 C 181.32 113.65 181.33 111.80 181.31 109.96 C 181.15 102.41 181.94 94.87 181.66 87.32 C 136.32 115.16 91.30 143.53 46.00 171.46 C 46.06 170.86 46.16 169.67 46.21 169.07 C 49.88 166.41 53.91 164.31 57.67 161.78 C 88.56 142.63 119.38 123.38 150.26 104.24 Z" />
<path fill="#f48f9f" d=" M 46.00 171.46 C 91.30 143.53 136.32 115.16 181.66 87.32 C 181.94 94.87 181.15 102.41 181.31 109.96 C 172.92 110.24 164.49 109.53 156.12 110.33 C 147.75 111.70 139.31 114.29 132.52 119.56 C 120.48 128.47 112.78 142.99 112.21 157.97 C 111.74 168.57 114.95 179.32 121.03 188.02 C 130.28 202.09 147.33 210.29 164.05 209.77 C 178.70 209.63 193.36 209.83 208.02 209.67 C 210.87 209.61 213.72 209.90 216.54 210.36 C 201.01 221.63 185.25 232.58 169.82 243.97 C 168.21 243.63 166.60 243.26 164.96 243.22 C 128.98 243.31 92.99 243.29 57.01 243.27 C 53.36 243.33 49.72 243.30 46.09 243.07 C 45.77 219.25 46.29 195.41 45.80 171.59 L 46.00 171.46 Z" />
<path fill="#a01151" d=" M 416.38 125.00 C 427.31 117.66 438.13 110.12 449.34 103.21 C 444.11 118.54 438.33 133.68 432.96 148.96 C 454.17 135.37 475.13 121.38 496.31 107.75 C 496.47 108.23 496.78 109.19 496.94 109.67 C 474.76 124.40 452.47 138.97 430.04 153.31 C 429.97 152.63 429.82 151.28 429.74 150.60 C 433.75 141.91 436.35 132.64 439.77 123.71 C 441.50 118.73 443.69 113.91 445.03 108.80 C 435.52 113.95 427.08 120.84 417.78 126.34 C 416.08 127.26 414.53 128.41 413.14 129.74 C 412.72 129.29 412.30 128.86 411.88 128.44 C 413.37 127.28 414.86 126.12 416.38 125.00 Z" />
<path fill="#893f54" d=" M 497.83 106.81 C 499.40 105.83 500.97 104.85 502.54 103.87 C 502.86 145.41 502.46 186.97 502.72 228.52 L 502.46 228.64 C 500.66 229.43 498.88 230.24 497.15 231.15 C 497.18 230.68 497.22 229.75 497.24 229.29 C 498.81 228.23 501.08 227.78 501.96 225.94 C 502.77 221.14 502.26 216.23 502.09 211.39 C 500.42 212.19 498.79 213.04 497.11 213.81 C 496.88 213.56 496.41 213.07 496.18 212.82 C 496.39 212.69 496.82 212.42 497.03 212.28 C 498.72 211.19 500.57 210.24 501.98 208.77 C 502.51 206.89 502.33 204.90 502.38 202.97 C 502.08 174.92 502.65 146.86 502.11 118.82 C 500.38 119.83 498.66 120.86 496.95 121.92 C 496.98 121.43 497.03 120.45 497.06 119.96 L 497.06 119.78 C 498.92 118.75 500.67 117.55 502.34 116.24 C 502.37 113.01 502.33 109.78 502.06 106.56 C 500.27 107.45 498.55 108.49 496.94 109.67 C 496.78 109.19 496.47 108.23 496.31 107.75 C 496.81 107.43 497.32 107.12 497.83 106.81 Z" />
<path fill="#e05973" d=" M 496.94 109.67 C 498.55 108.49 500.27 107.45 502.06 106.56 C 502.33 109.78 502.37 113.01 502.34 116.24 C 500.67 117.55 498.92 118.75 497.06 119.78 C 497.07 116.41 496.96 113.04 496.94 109.67 Z" />
<path fill="#983f59" d=" M 227.51 110.28 C 227.81 110.07 228.42 109.65 228.73 109.44 C 229.34 109.62 230.56 110.00 231.17 110.19 C 228.81 111.53 226.61 113.16 224.60 115.01 C 229.74 115.45 234.90 115.36 240.05 115.26 C 243.90 115.31 246.72 112.34 249.62 110.25 C 249.86 110.17 250.34 110.00 250.58 109.91 C 251.25 110.01 252.57 110.20 253.24 110.30 C 250.68 111.75 248.25 113.42 246.21 115.54 C 237.40 115.59 228.60 115.68 219.79 115.52 C 222.41 113.85 224.98 112.10 227.51 110.28 Z" />
<path fill="#d91b5c" d=" M 417.78 126.34 C 427.08 120.84 435.52 113.95 445.03 108.80 C 443.69 113.91 441.50 118.73 439.77 123.71 C 436.35 132.64 433.75 141.91 429.74 150.60 C 428.65 146.17 427.29 141.79 425.32 137.67 C 424.50 136.04 423.63 134.45 422.62 132.94 C 421.05 130.71 419.38 128.55 417.78 126.34 Z" />
<path fill="#f6a4b0" d=" M 132.52 119.56 C 139.31 114.29 147.75 111.70 156.12 110.33 C 164.49 109.53 172.92 110.24 181.31 109.96 C 181.33 111.80 181.32 113.65 181.33 115.49 C 173.90 115.60 166.46 115.29 159.04 115.66 C 145.54 116.46 132.63 123.91 125.19 135.21 C 116.54 147.89 115.28 165.24 122.10 179.01 C 127.89 191.24 139.59 200.47 152.86 203.17 C 158.14 204.36 163.59 203.95 168.95 204.00 C 187.73 204.02 206.50 203.96 225.27 204.03 C 223.13 205.61 221.02 207.23 218.86 208.77 C 218.08 209.30 217.31 209.83 216.54 210.36 C 213.72 209.90 210.87 209.61 208.02 209.67 C 193.36 209.83 178.70 209.63 164.05 209.77 C 147.33 210.29 130.28 202.09 121.03 188.02 C 114.95 179.32 111.74 168.57 112.21 157.97 C 112.78 142.99 120.48 128.47 132.52 119.56 Z" />
<path fill="#e05973" d=" M 182.83 109.97 C 186.50 110.02 190.16 110.05 193.83 109.92 C 193.80 111.77 193.79 113.63 193.78 115.49 C 190.00 115.50 186.23 115.50 182.45 115.49 C 182.55 113.65 182.65 111.81 182.83 109.97 Z" />
<path fill="#000000" d=" M 193.83 109.92 C 193.91 110.08 194.07 110.41 194.14 110.57 C 194.26 112.21 194.25 113.85 194.28 115.50 C 202.78 115.52 211.29 115.46 219.79 115.52 C 228.60 115.68 237.40 115.59 246.21 115.54 C 290.81 115.45 335.41 115.52 380.02 115.51 C 391.79 115.41 403.59 120.02 411.88 128.44 C 412.30 128.86 412.72 129.29 413.14 129.74 C 414.98 131.79 416.72 133.95 418.19 136.29 C 418.72 137.18 419.21 138.08 419.70 139.00 C 420.26 140.13 420.82 141.27 421.38 142.40 C 421.72 143.12 422.04 143.84 422.35 144.57 C 425.65 153.83 425.59 163.96 423.07 173.40 C 418.46 186.40 408.19 197.45 394.94 201.75 C 386.65 204.88 377.70 203.84 369.05 204.00 C 351.77 204.08 334.49 203.84 317.21 204.13 C 311.85 204.10 306.48 203.89 301.11 204.04 C 299.86 204.04 298.62 204.04 297.38 204.03 C 286.09 203.95 274.79 204.03 263.49 203.99 C 263.03 203.99 262.11 203.99 261.65 203.99 C 256.06 203.99 250.48 203.99 244.90 204.06 C 242.82 204.06 240.75 204.12 238.68 204.25 C 237.77 206.30 235.69 207.32 234.05 208.69 C 233.87 208.85 233.51 209.17 233.33 209.33 C 233.07 209.31 232.54 209.26 232.28 209.24 C 234.36 207.72 237.35 206.72 238.16 204.04 C 235.14 203.98 232.12 204.00 229.11 204.02 C 227.83 204.03 226.55 204.03 225.27 204.03 C 206.50 203.96 187.73 204.02 168.95 204.00 C 163.59 203.95 158.14 204.36 152.86 203.17 C 139.59 200.47 127.89 191.24 122.10 179.01 C 115.28 165.24 116.54 147.89 125.19 135.21 C 132.63 123.91 145.54 116.46 159.04 115.66 C 166.46 115.29 173.90 115.60 181.33 115.49 C 181.61 115.49 182.17 115.49 182.45 115.49 C 186.23 115.50 190.00 115.50 193.78 115.49 C 193.79 113.63 193.80 111.77 193.83 109.92 Z" />
<path fill="#f37e9b" d=" M 194.14 110.57 C 198.70 109.58 203.37 110.03 207.99 109.99 C 214.49 110.08 221.01 109.76 227.51 110.28 C 224.98 112.10 222.41 113.85 219.79 115.52 C 211.29 115.46 202.78 115.52 194.28 115.50 C 194.25 113.85 194.26 112.21 194.14 110.57 Z" />
<path fill="#df5972" d=" M 231.17 110.19 C 231.51 110.09 232.19 109.89 232.52 109.79 C 238.22 110.11 243.93 109.82 249.62 110.25 C 246.72 112.34 243.90 115.31 240.05 115.26 C 234.90 115.36 229.74 115.45 224.60 115.01 C 226.61 113.16 228.81 111.53 231.17 110.19 Z" />
<path fill="#f6a4b0" d=" M 253.24 110.30 C 253.57 110.11 254.24 109.73 254.57 109.54 C 256.70 109.76 258.84 109.95 260.99 109.99 C 300.98 110.03 340.96 109.95 380.94 110.03 C 394.17 109.95 406.98 115.86 416.38 125.00 C 414.86 126.12 413.37 127.28 411.88 128.44 C 403.59 120.02 391.79 115.41 380.02 115.51 C 335.41 115.52 290.81 115.45 246.21 115.54 C 248.25 113.42 250.68 111.75 253.24 110.30 Z" />
<path fill="#d91b5c" d=" M 430.04 153.31 C 452.47 138.97 474.76 124.40 496.94 109.67 C 496.96 113.04 497.07 116.41 497.06 119.78 L 497.06 119.96 C 474.47 135.06 452.49 151.06 429.96 166.25 C 430.75 161.97 430.52 157.61 430.04 153.31 Z" />
<path fill="#49494b" d=" M 135.78 128.52 C 143.07 121.72 153.20 118.72 163.02 118.61 C 235.01 118.61 307.01 118.62 379.00 118.61 C 386.00 118.71 393.15 119.92 399.34 123.34 C 398.90 123.54 398.02 123.94 397.58 124.14 C 392.09 121.62 386.08 120.33 380.04 120.37 C 310.37 120.36 240.70 120.37 171.03 120.36 C 164.63 120.38 158.11 119.99 151.87 121.70 C 146.54 123.03 141.65 125.70 137.28 128.97 C 136.90 128.85 136.15 128.63 135.78 128.52 Z" />
<path fill="#f37e9b" d=" M 496.95 121.92 C 498.66 120.86 500.38 119.83 502.11 118.82 C 502.65 146.86 502.08 174.92 502.38 202.97 C 502.33 204.90 502.51 206.89 501.98 208.77 C 500.57 210.24 498.72 211.19 497.03 212.28 C 496.91 182.40 497.07 152.51 496.92 122.63 L 496.95 121.92 Z" />
<path fill="#000000" d=" M 151.87 121.70 C 158.11 119.99 164.63 120.38 171.03 120.36 C 240.70 120.37 310.37 120.36 380.04 120.37 C 386.08 120.33 392.09 121.62 397.58 124.14 C 404.99 128.09 411.57 133.91 415.44 141.45 C 421.61 153.20 421.49 168.12 414.63 179.55 C 408.07 191.48 394.64 199.12 381.08 199.02 C 309.71 198.96 238.35 199.02 166.98 199.00 C 161.94 199.04 156.79 199.22 151.89 197.81 C 140.09 194.84 130.07 185.86 125.56 174.59 C 122.82 168.07 122.54 160.82 123.19 153.87 C 124.59 144.19 129.89 135.30 137.28 128.97 C 141.65 125.70 146.54 123.03 151.87 121.70 Z" />
<path fill="#9f1152" d=" M 429.96 166.25 C 452.49 151.06 474.47 135.06 497.06 119.96 C 497.03 120.45 496.98 121.43 496.95 121.92 L 496.92 122.63 C 481.28 133.03 466.04 144.04 450.55 154.66 C 444.02 159.35 437.23 163.69 430.84 168.57 L 429.67 168.21 C 429.74 167.72 429.89 166.74 429.96 166.25 Z" />
<path fill="#6d6e72" d=" M 160.54 121.59 C 233.37 121.38 306.21 121.56 379.05 121.50 C 387.77 121.40 396.61 123.90 403.55 129.28 C 414.65 137.44 420.73 151.93 418.47 165.56 C 416.02 183.22 399.85 197.79 381.95 198.00 C 308.28 198.00 234.61 197.99 160.94 198.00 C 148.42 197.83 136.34 190.81 129.72 180.23 C 122.77 169.47 121.79 155.11 127.45 143.59 C 133.26 130.85 146.56 122.08 160.54 121.59 Z" />
<path fill="#3a3a3c" d=" M 399.34 123.34 C 415.96 131.04 425.30 151.33 420.84 169.05 C 416.98 186.77 400.24 200.72 382.05 201.00 C 310.02 201.01 237.99 201.00 165.96 201.01 C 160.57 201.11 155.06 201.06 149.92 199.23 C 136.41 195.18 125.51 183.67 122.04 170.03 C 118.25 156.02 122.88 140.39 133.23 130.32 C 134.04 129.78 134.74 128.39 135.78 128.52 C 136.15 128.63 136.90 128.85 137.28 128.97 C 129.89 135.30 124.59 144.19 123.19 153.87 C 122.54 160.82 122.82 168.07 125.56 174.59 C 130.07 185.86 140.09 194.84 151.89 197.81 C 156.79 199.22 161.94 199.04 166.98 199.00 C 238.35 199.02 309.71 198.96 381.08 199.02 C 394.64 199.12 408.07 191.48 414.63 179.55 C 421.49 168.12 421.61 153.20 415.44 141.45 C 411.57 133.91 404.99 128.09 397.58 124.14 C 398.02 123.94 398.90 123.54 399.34 123.34 Z" />
<path fill="#f05a88" d=" M 450.55 154.66 C 466.04 144.04 481.28 133.03 496.92 122.63 C 497.07 152.51 496.91 182.40 497.03 212.28 C 496.82 212.42 496.39 212.69 496.18 212.82 C 490.09 216.87 484.25 221.28 478.09 225.22 C 478.79 213.51 480.36 201.86 480.77 190.14 C 453.21 208.34 425.26 225.96 397.79 244.29 C 395.52 243.93 393.25 243.59 390.96 243.60 C 346.30 243.76 301.64 243.51 256.98 243.68 C 274.61 232.45 292.04 220.90 309.53 209.45 C 310.19 209.16 310.85 208.87 311.51 208.56 C 312.99 208.95 314.47 209.38 316.02 209.40 C 338.01 209.35 359.99 209.33 381.98 209.37 C 404.43 209.78 425.52 191.85 429.23 169.83 C 429.77 169.41 430.30 168.99 430.84 168.57 C 437.23 163.69 444.02 159.35 450.55 154.66 Z" />
<path fill="#000000" d=" M 217.35 126.41 C 252.57 126.04 287.84 126.36 323.07 126.25 C 325.75 125.86 328.17 128.29 327.75 130.97 C 327.74 150.33 327.76 169.69 327.74 189.06 C 328.02 191.61 325.53 193.81 323.02 193.48 C 288.34 193.50 253.64 193.51 218.96 193.48 C 216.54 193.65 214.31 191.37 214.51 188.97 C 214.49 169.64 214.49 150.32 214.52 131.00 C 214.29 129.00 215.47 127.10 217.35 126.41 Z" />
<path fill="#000000" d=" M 354.84 140.68 C 360.59 132.09 370.68 126.65 381.01 126.49 C 390.32 126.19 399.67 130.13 405.93 137.05 C 414.35 145.98 416.82 159.81 412.28 171.17 C 407.51 183.68 394.43 192.48 381.00 191.79 C 366.09 191.84 352.20 180.12 349.79 165.41 C 349.91 165.03 350.15 164.27 350.27 163.89 C 350.35 164.05 350.52 164.38 350.60 164.55 C 352.01 171.85 355.81 178.69 361.60 183.42 C 370.62 191.21 384.22 193.04 394.97 187.91 C 408.66 181.88 416.71 165.34 412.36 150.90 C 408.71 136.48 393.86 126.06 379.05 127.62 C 366.53 128.63 355.26 137.81 351.62 149.81 C 350.13 154.14 350.28 158.77 349.99 163.27 C 349.76 163.15 349.31 162.90 349.08 162.78 C 348.85 155.06 350.25 147.07 354.84 140.68 Z" />
<path fill="#000000" d=" M 148.07 130.22 C 160.21 124.45 175.86 127.00 185.21 136.78 C 193.41 144.81 196.55 157.31 193.64 168.36 L 192.50 168.73 C 194.18 162.06 194.12 154.91 191.50 148.49 C 188.18 139.81 180.91 132.76 172.07 129.86 C 161.39 126.08 148.87 128.85 140.62 136.55 C 130.96 145.25 127.53 160.14 132.84 172.09 C 138.40 185.83 154.47 194.32 168.93 190.72 C 179.98 188.33 188.78 179.62 192.49 169.10 L 193.34 168.55 C 189.80 184.28 172.73 194.94 157.00 192.13 C 141.86 190.16 129.58 176.30 129.31 161.05 C 128.68 148.23 136.40 135.55 148.07 130.22 Z" />
<path fill="#e05973" d=" M 413.14 129.74 C 414.53 128.41 416.08 127.26 417.78 126.34 C 419.38 128.55 421.05 130.71 422.62 132.94 C 421.15 134.06 419.67 135.17 418.19 136.29 C 416.72 133.95 414.98 131.79 413.14 129.74 Z" />
<path fill="#9f1152" d=" M 140.62 136.55 C 148.87 128.85 161.39 126.08 172.07 129.86 C 180.91 132.76 188.18 139.81 191.50 148.49 C 194.12 154.91 194.18 162.06 192.50 168.73 L 193.64 168.36 C 193.57 168.40 193.42 168.50 193.34 168.55 L 192.49 169.10 C 188.78 179.62 179.98 188.33 168.93 190.72 C 154.47 194.32 138.40 185.83 132.84 172.09 C 127.53 160.14 130.96 145.25 140.62 136.55 Z" />
<path fill="#9f1152" d=" M 351.62 149.81 C 355.26 137.81 366.53 128.63 379.05 127.62 C 393.86 126.06 408.71 136.48 412.36 150.90 C 416.71 165.34 408.66 181.88 394.97 187.91 C 384.22 193.04 370.62 191.21 361.60 183.42 C 355.81 178.69 352.01 171.85 350.60 164.55 C 350.52 164.38 350.35 164.05 350.27 163.89 L 349.99 163.27 C 350.28 158.77 350.13 154.14 351.62 149.81 Z" />
<path fill="#ffffff" d=" M 284.55 129.39 C 297.08 129.06 309.62 129.37 322.15 129.22 C 320.15 133.48 318.37 137.87 317.27 142.45 L 317.24 142.56 C 314.79 152.04 314.56 162.09 316.34 171.71 L 316.38 171.95 C 317.56 178.42 319.89 184.64 322.83 190.52 C 309.41 190.49 296.00 190.51 282.58 190.50 C 287.80 174.40 288.88 157.15 286.83 140.39 C 286.66 138.45 286.31 136.53 285.81 134.66 C 285.39 132.90 284.99 131.13 284.55 129.39 Z" />
<path fill="#594a42" d=" M 323.34 129.15 C 323.70 129.39 324.41 129.88 324.77 130.12 C 324.68 150.12 324.89 170.13 324.67 190.13 C 323.80 189.71 323.20 189.05 322.86 188.16 C 320.45 183.20 318.76 177.92 317.52 172.55 C 317.23 172.40 316.67 172.10 316.38 171.95 L 316.34 171.71 C 317.23 167.49 316.09 163.23 316.24 158.99 C 316.12 153.52 317.05 148.12 318.16 142.79 L 317.24 142.56 L 317.27 142.45 C 318.84 141.45 319.16 139.58 319.74 137.95 C 320.69 134.92 322.07 132.06 323.34 129.15 Z" />
<path fill="#000000" d=" M 356.13 142.46 C 361.52 134.99 370.10 128.94 379.61 129.14 C 379.48 131.76 379.47 134.39 379.55 137.02 C 381.10 137.00 382.66 136.99 384.23 136.99 C 384.27 134.31 384.26 131.64 384.20 128.97 C 393.59 129.30 402.49 134.87 407.43 142.78 C 405.29 144.00 403.13 145.20 400.93 146.33 C 401.50 147.70 402.16 149.05 402.89 150.36 C 405.28 149.34 407.49 147.94 409.83 146.81 C 413.25 155.23 413.05 164.93 409.02 173.10 C 407.01 172.00 405.00 170.94 403.01 169.83 C 402.26 171.13 401.53 172.44 400.82 173.76 C 402.71 174.78 404.54 175.90 406.34 177.08 C 401.48 184.37 393.01 188.57 384.47 189.66 C 384.27 187.56 384.18 185.46 384.24 183.36 C 382.68 183.31 381.13 183.25 379.58 183.18 C 379.51 185.29 379.47 187.41 379.46 189.52 C 370.64 188.87 362.39 184.16 357.12 177.10 C 359.00 175.96 360.91 174.85 362.84 173.78 C 362.13 172.46 361.42 171.15 360.72 169.83 C 358.66 170.95 356.60 172.06 354.47 173.02 C 350.85 164.79 350.26 155.10 353.96 146.78 C 356.21 148.03 358.43 149.32 360.75 150.42 C 361.45 149.16 362.15 147.91 362.85 146.65 C 360.61 145.25 358.30 143.97 356.13 142.46 Z" />
<path fill="#000000" d=" M 136.36 143.16 C 141.61 135.41 150.22 130.29 159.52 129.33 C 159.83 132.10 159.79 134.90 159.72 137.68 C 161.24 137.70 162.77 137.70 164.30 137.68 C 164.23 134.89 164.12 132.08 164.51 129.30 C 173.80 130.34 182.43 135.40 187.64 143.19 C 185.51 144.65 183.27 145.94 180.99 147.17 C 181.71 148.49 182.42 149.81 183.14 151.14 C 185.33 150.08 187.44 148.85 189.41 147.40 C 194.00 155.30 193.06 165.61 189.18 173.65 C 187.11 172.67 185.09 171.60 183.10 170.46 C 182.40 171.81 181.71 173.17 181.01 174.53 C 182.96 175.54 184.85 176.65 186.68 177.85 C 181.33 184.79 173.12 189.78 164.24 190.09 C 164.25 188.05 164.24 186.02 164.22 184.00 C 162.73 184.00 161.24 184.00 159.76 184.00 C 159.75 186.04 159.76 188.09 159.77 190.13 C 150.92 189.72 142.71 184.86 137.37 177.91 C 139.12 176.60 141.02 175.50 142.98 174.56 C 142.35 173.07 141.55 171.67 140.49 170.45 C 138.67 171.64 136.79 172.75 134.89 173.81 C 130.71 165.69 130.60 155.92 133.99 147.50 C 136.37 148.53 138.55 149.96 140.83 151.17 C 141.55 149.84 142.28 148.51 143.00 147.18 C 140.74 145.92 138.45 144.69 136.36 143.16 Z" />
<path fill="#5b4a42" d=" M 217.66 129.52 C 239.52 129.02 261.43 129.37 283.31 129.34 C 283.89 131.21 284.17 133.35 285.81 134.66 C 286.31 136.53 286.66 138.45 286.83 140.39 C 285.30 144.80 287.11 149.46 286.72 154.01 C 287.23 166.29 284.99 178.44 281.74 190.23 C 269.19 190.83 256.60 190.32 244.03 190.49 C 235.27 190.38 226.49 190.71 217.73 190.31 C 217.31 170.06 217.47 149.77 217.66 129.52 Z" />
<path fill="#ffffff" d=" M 388.36 133.47 C 393.31 134.96 397.92 137.61 401.38 141.49 C 399.30 142.66 396.17 144.03 396.74 146.98 C 397.34 149.45 398.89 151.60 400.34 153.65 C 402.55 155.60 405.40 153.93 407.63 152.93 C 408.58 157.67 408.43 162.56 407.04 167.21 C 405.07 166.19 402.47 164.76 400.50 166.59 C 398.85 168.42 397.70 170.68 396.76 172.95 C 396.07 175.50 398.49 176.97 400.03 178.49 C 396.60 181.32 392.69 183.50 388.46 184.85 C 388.17 182.84 387.97 180.09 385.54 179.54 C 383.09 178.99 380.47 179.12 378.01 179.50 C 375.83 180.27 375.28 182.77 375.41 184.83 C 370.98 183.68 367.06 181.27 363.54 178.42 C 365.22 177.02 367.68 175.52 366.95 172.91 C 365.99 170.72 364.85 168.57 363.35 166.72 C 361.41 164.67 358.59 166.25 356.45 167.03 C 355.32 162.36 355.16 157.51 356.06 152.80 C 358.26 153.97 361.30 155.73 363.44 153.44 C 365.08 150.83 368.11 147.78 366.47 144.49 C 365.39 143.05 363.66 142.30 362.25 141.26 C 365.97 137.68 370.43 134.86 375.44 133.47 C 375.66 135.46 374.99 137.80 376.35 139.51 C 377.61 141.36 380.05 140.95 381.97 141.05 C 383.64 140.96 385.64 141.30 386.95 139.98 C 388.67 138.26 388.14 135.66 388.36 133.47 Z" />
<path fill="#ad4868" d=" M 422.62 132.94 C 423.63 134.45 424.50 136.04 425.32 137.67 C 424.44 140.01 423.45 142.32 422.35 144.57 C 422.04 143.84 421.72 143.12 421.38 142.40 C 422.23 140.17 422.88 137.87 423.37 135.54 C 422.20 136.02 421.04 136.52 419.90 137.05 C 419.85 137.54 419.75 138.51 419.70 139.00 C 419.21 138.08 418.72 137.18 418.19 136.29 C 419.67 135.17 421.15 134.06 422.62 132.94 Z" />
<path fill="#ffffff" d=" M 142.95 142.10 C 145.77 137.83 150.98 135.64 155.74 134.12 C 155.68 136.76 155.18 140.52 158.40 141.50 C 160.95 141.87 163.76 142.12 166.23 141.24 C 168.93 139.87 168.19 136.59 168.26 134.13 C 172.94 135.49 177.50 137.77 180.82 141.43 C 181.39 143.38 178.11 143.44 177.50 144.99 C 175.77 148.37 178.73 151.78 180.65 154.38 C 182.84 156.41 185.60 154.52 187.76 153.48 C 188.77 158.21 188.56 163.07 187.33 167.75 C 185.19 166.81 182.46 165.43 180.44 167.39 C 178.78 169.97 176.24 172.80 177.17 176.10 C 177.72 177.23 178.94 177.77 179.82 178.59 C 180.05 179.71 178.52 180.19 177.90 180.88 C 175.05 183.07 171.73 184.50 168.32 185.56 C 168.15 183.98 168.57 181.97 167.04 180.94 C 165.72 179.66 163.72 180.08 162.07 179.96 C 160.38 180.09 158.36 179.63 157.00 180.91 C 155.43 181.93 155.84 183.96 155.67 185.56 C 151.38 184.23 147.19 182.25 143.99 179.04 C 144.67 177.81 146.28 177.37 146.86 176.04 C 147.70 172.79 145.25 170.03 143.64 167.48 C 141.63 165.38 138.80 166.79 136.64 167.77 C 135.47 163.08 135.22 158.23 136.23 153.49 C 138.43 154.57 141.14 156.33 143.43 154.41 C 145.07 151.90 147.52 149.25 146.96 146.02 C 146.53 143.96 144.09 143.59 142.95 142.10 Z" />
<path fill="#df728f" d=" M 419.90 137.05 C 421.04 136.52 422.20 136.02 423.37 135.54 C 422.88 137.87 422.23 140.17 421.38 142.40 C 420.82 141.27 420.26 140.13 419.70 139.00 C 419.75 138.51 419.85 137.54 419.90 137.05 Z" />
<path fill="#e05973" d=" M 425.32 137.67 C 427.29 141.79 428.65 146.17 429.74 150.60 C 429.82 151.28 429.97 152.63 430.04 153.31 C 430.52 157.61 430.75 161.97 429.96 166.25 C 429.89 166.74 429.74 167.72 429.67 168.21 L 430.84 168.57 C 430.30 168.99 429.77 169.41 429.23 169.83 C 427.32 171.27 425.18 172.31 423.07 173.40 C 425.59 163.96 425.65 153.83 422.35 144.57 C 423.45 142.32 424.44 140.01 425.32 137.67 Z" />
<path fill="#000000" d=" M 317.24 142.56 L 318.16 142.79 C 317.05 148.12 316.12 153.52 316.24 158.99 C 316.09 163.23 317.23 167.49 316.34 171.71 C 314.56 162.09 314.79 152.04 317.24 142.56 Z" />
<path fill="#99415b" d=" M 40.56 160.20 C 42.40 159.16 44.24 158.11 46.08 157.06 C 46.06 157.56 46.02 158.57 46.00 159.07 L 45.98 159.49 C 44.08 160.71 40.74 161.20 40.80 164.04 C 40.46 166.75 40.77 169.49 41.00 172.20 C 42.79 171.25 44.53 170.20 46.21 169.07 C 46.16 169.67 46.06 170.86 46.00 171.46 L 45.80 171.59 C 44.03 172.72 42.24 173.83 40.45 174.95 C 40.29 170.07 40.47 165.19 40.37 160.31 L 40.56 160.20 Z" />
<path fill="#e05973" d=" M 40.80 164.04 C 40.74 161.20 44.08 160.71 45.98 159.49 C 45.92 162.69 46.03 165.88 46.21 169.07 C 44.53 170.20 42.79 171.25 41.00 172.20 C 40.77 169.49 40.46 166.75 40.80 164.04 Z" />
<path fill="#f37e9b" d=" M 423.07 173.40 C 425.18 172.31 427.32 171.27 429.23 169.83 C 425.52 191.85 404.43 209.78 381.98 209.37 C 359.99 209.33 338.01 209.35 316.02 209.40 C 314.47 209.38 312.99 208.95 311.51 208.56 C 313.57 207.30 315.43 205.76 317.21 204.13 C 334.49 203.84 351.77 204.08 369.05 204.00 C 377.70 203.84 386.65 204.88 394.94 201.75 C 408.19 197.45 418.46 186.40 423.07 173.40 Z" />
<path fill="#f6a4b0" d=" M 40.45 174.95 C 42.24 173.83 44.03 172.72 45.80 171.59 C 46.29 195.41 45.77 219.25 46.09 243.07 C 49.72 243.30 53.36 243.33 57.01 243.27 C 92.99 243.29 128.98 243.31 164.96 243.22 C 166.60 243.26 168.21 243.63 169.82 243.97 C 167.58 245.71 165.35 247.47 162.91 248.93 C 122.09 249.01 81.25 249.12 40.42 248.88 C 40.58 224.24 40.51 199.59 40.45 174.95 Z" />
<path fill="#9e1151" d=" M 480.77 190.14 C 480.36 201.86 478.79 213.51 478.09 225.22 C 484.25 221.28 490.09 216.87 496.18 212.82 C 496.41 213.07 496.88 213.56 497.11 213.81 L 497.07 214.81 C 489.96 219.49 483.21 224.73 475.91 229.11 C 476.13 217.64 478.16 206.26 478.27 194.80 C 473.54 196.95 469.49 200.27 465.07 202.94 C 444.60 216.39 423.84 229.39 403.55 243.09 C 400.00 244.35 396.84 246.46 394.07 249.00 C 393.03 248.96 391.98 248.91 390.95 248.87 C 393.30 247.46 395.53 245.85 397.79 244.29 C 425.26 225.96 453.21 208.34 480.77 190.14 Z" />
<path fill="#d91b5d" d=" M 465.07 202.94 C 469.49 200.27 473.54 196.95 478.27 194.80 C 478.16 206.26 476.13 217.64 475.91 229.11 C 483.21 224.73 489.96 219.49 497.07 214.81 C 496.88 219.63 496.88 224.47 497.24 229.29 C 489.13 233.44 481.55 238.55 473.72 243.19 L 473.17 243.51 C 470.42 243.52 467.69 243.35 464.96 243.18 C 464.95 233.48 465.14 223.79 464.82 214.10 C 451.12 223.84 437.63 233.87 423.90 243.57 C 417.13 243.07 410.32 243.77 403.55 243.09 C 423.84 229.39 444.60 216.39 465.07 202.94 Z" />
<path fill="#c2466c" d=" M 225.27 204.03 C 226.55 204.03 227.83 204.03 229.11 204.02 C 226.94 205.58 224.84 207.24 222.82 208.98 C 225.68 209.22 228.54 209.36 231.41 209.32 C 230.94 209.45 230.00 209.71 229.53 209.85 C 226.78 209.79 224.03 209.72 221.29 209.56 C 220.68 209.36 219.46 208.97 218.86 208.77 C 221.02 207.23 223.13 205.61 225.27 204.03 Z" />
<path fill="#e15872" d=" M 229.11 204.02 C 232.12 204.00 235.14 203.98 238.16 204.04 C 237.35 206.72 234.36 207.72 232.28 209.24 L 231.41 209.32 C 228.54 209.36 225.68 209.22 222.82 208.98 C 224.84 207.24 226.94 205.58 229.11 204.02 Z" />
<path fill="#f37e9b" d=" M 238.68 204.25 C 240.75 204.12 242.82 204.06 244.90 204.06 C 244.85 205.80 244.81 207.55 244.76 209.29 C 241.19 209.65 237.44 210.30 234.05 208.69 C 235.69 207.32 237.77 206.30 238.68 204.25 Z" />
<path fill="#df5972" d=" M 244.90 204.06 C 250.48 203.99 256.06 203.99 261.65 203.99 C 261.61 206.01 261.33 208.01 260.61 209.90 C 256.11 209.38 251.58 209.74 247.07 209.55 C 246.49 209.48 245.34 209.36 244.76 209.29 C 244.81 207.55 244.85 205.80 244.90 204.06 Z" />
<path fill="#a01051" d=" M 261.65 203.99 C 262.11 203.99 263.03 203.99 263.49 203.99 C 263.05 205.94 262.68 207.91 262.41 209.89 C 261.41 216.60 259.71 223.18 258.62 229.87 C 268.73 223.64 278.42 216.74 288.36 210.23 C 289.14 209.74 289.91 209.24 290.69 208.75 C 291.32 208.95 292.60 209.35 293.23 209.55 C 280.75 217.73 268.50 226.28 255.87 234.23 C 256.92 226.04 258.66 217.92 260.61 209.90 C 261.33 208.01 261.61 206.01 261.65 203.99 Z" />
<path fill="#f6a4b0" d=" M 263.49 203.99 C 274.79 204.03 286.09 203.95 297.38 204.03 C 295.17 205.63 292.96 207.24 290.69 208.75 C 289.91 209.24 289.14 209.74 288.36 210.23 C 279.75 209.30 271.05 209.75 262.41 209.89 C 262.68 207.91 263.05 205.94 263.49 203.99 Z" />
<path fill="#c5476d" d=" M 297.38 204.03 C 298.62 204.04 299.86 204.04 301.11 204.04 C 299.03 205.63 296.97 207.24 294.95 208.91 C 298.74 209.23 302.54 209.20 306.34 209.34 C 305.87 209.47 304.94 209.75 304.47 209.89 C 300.73 209.69 296.98 209.63 293.23 209.55 C 292.60 209.35 291.32 208.95 290.69 208.75 C 292.96 207.24 295.17 205.63 297.38 204.03 Z" />
<path fill="#df5973" d=" M 301.11 204.04 C 306.48 203.89 311.85 204.10 317.21 204.13 C 315.43 205.76 313.57 207.30 311.51 208.56 C 310.85 208.87 310.19 209.16 309.53 209.45 C 308.46 209.41 307.40 209.37 306.34 209.34 C 302.54 209.20 298.74 209.23 294.95 208.91 C 296.97 207.24 299.03 205.63 301.11 204.04 Z" />
<path fill="#9e1151" d=" M 216.54 210.36 C 217.31 209.83 218.08 209.30 218.86 208.77 C 219.46 208.97 220.68 209.36 221.29 209.56 C 205.80 220.77 190.08 231.68 174.74 243.09 C 174.47 243.23 173.93 243.52 173.66 243.66 C 170.90 245.05 168.45 246.94 166.15 248.99 C 165.07 248.97 163.99 248.95 162.91 248.93 C 165.35 247.47 167.58 245.71 169.82 243.97 C 185.25 232.58 201.01 221.63 216.54 210.36 Z" />
<path fill="#9e1151" d=" M 231.41 209.32 L 232.28 209.24 C 232.54 209.26 233.07 209.31 233.33 209.33 C 231.26 211.68 228.69 213.45 226.15 215.24 C 213.30 224.62 200.50 234.08 187.63 243.43 C 187.33 243.63 186.73 244.03 186.43 244.23 C 185.77 244.03 184.45 243.62 183.79 243.42 C 199.22 232.49 214.53 221.35 229.53 209.85 C 230.00 209.71 230.94 209.45 231.41 209.32 Z" />
<path fill="#f05a88" d=" M 233.33 209.33 C 233.51 209.17 233.87 208.85 234.05 208.69 C 237.44 210.30 241.19 209.65 244.76 209.29 C 244.70 220.79 244.73 232.29 244.73 243.79 C 225.71 243.31 206.66 244.01 187.63 243.43 C 200.50 234.08 213.30 224.62 226.15 215.24 C 228.69 213.45 231.26 211.68 233.33 209.33 Z" />
<path fill="#a71353" d=" M 244.76 209.29 C 245.34 209.36 246.49 209.48 247.07 209.55 C 246.65 220.77 246.99 232.01 246.84 243.24 C 246.31 243.38 245.26 243.65 244.73 243.79 C 244.73 232.29 244.70 220.79 244.76 209.29 Z" />
<path fill="#9e1151" d=" M 306.34 209.34 C 307.40 209.37 308.46 209.41 309.53 209.45 C 292.04 220.90 274.61 232.45 256.98 243.68 L 256.38 244.03 C 255.74 243.88 254.46 243.57 253.82 243.41 C 269.23 233.29 284.63 223.17 300.12 213.17 C 301.62 212.15 303.03 211.00 304.47 209.89 C 304.94 209.75 305.87 209.47 306.34 209.34 Z" />
<path fill="#d91b5c" d=" M 174.74 243.09 C 190.08 231.68 205.80 220.77 221.29 209.56 C 224.03 209.72 226.78 209.79 229.53 209.85 C 214.53 221.35 199.22 232.49 183.79 243.42 C 180.77 243.40 177.75 243.24 174.74 243.09 Z" />
<path fill="#d91b5c" d=" M 247.07 209.55 C 251.58 209.74 256.11 209.38 260.61 209.90 C 258.66 217.92 256.92 226.04 255.87 234.23 C 268.50 226.28 280.75 217.73 293.23 209.55 C 296.98 209.63 300.73 209.69 304.47 209.89 C 303.03 211.00 301.62 212.15 300.12 213.17 C 284.63 223.17 269.23 233.29 253.82 243.41 L 253.28 243.40 C 251.13 243.34 248.98 243.29 246.84 243.24 C 246.99 232.01 246.65 220.77 247.07 209.55 Z" />
<path fill="#f48f9f" d=" M 262.41 209.89 C 271.05 209.75 279.75 209.30 288.36 210.23 C 278.42 216.74 268.73 223.64 258.62 229.87 C 259.71 223.18 261.41 216.60 262.41 209.89 Z" />
<path fill="#e05973" d=" M 497.11 213.81 C 498.79 213.04 500.42 212.19 502.09 211.39 C 502.26 216.23 502.77 221.14 501.96 225.94 C 501.08 227.78 498.81 228.23 497.24 229.29 C 496.88 224.47 496.88 219.63 497.07 214.81 L 497.11 213.81 Z" />
<path fill="#9f1152" d=" M 423.90 243.57 C 437.63 233.87 451.12 223.84 464.82 214.10 C 465.14 223.79 464.95 233.48 464.96 243.18 L 464.96 243.74 C 464.46 243.80 463.48 243.94 462.99 244.01 L 462.98 243.12 C 462.98 234.76 463.08 226.39 462.92 218.03 C 451.56 226.35 440.10 234.53 428.71 242.81 C 427.86 243.40 427.02 244.00 426.19 244.61 C 425.62 244.35 424.48 243.83 423.90 243.57 Z" />
<path fill="#f48f9f" d=" M 428.71 242.81 C 440.10 234.53 451.56 226.35 462.92 218.03 C 463.08 226.39 462.98 234.76 462.98 243.12 C 451.57 243.19 440.10 243.81 428.71 242.81 Z" />
<path fill="#a81957" d=" M 473.72 243.19 C 481.55 238.55 489.13 233.44 497.24 229.29 C 497.22 229.75 497.18 230.68 497.15 231.15 L 496.96 231.78 C 490.81 235.39 484.75 239.13 478.64 242.81 C 477.81 243.28 476.99 243.75 476.18 244.22 C 475.56 243.96 474.33 243.45 473.72 243.19 Z" />
<path fill="#f6a4b0" d=" M 497.15 231.15 C 498.88 230.24 500.66 229.43 502.46 228.64 C 502.55 235.42 502.48 242.21 502.50 249.00 C 491.18 248.99 479.87 249.02 468.55 248.99 C 471.05 247.33 473.57 245.71 476.18 244.22 C 476.99 243.75 477.81 243.28 478.64 242.81 C 484.69 243.48 490.81 243.57 496.88 243.04 C 497.08 239.29 496.98 235.54 496.96 231.78 L 497.15 231.15 Z" />
<path fill="#f48f9f" d=" M 478.64 242.81 C 484.75 239.13 490.81 235.39 496.96 231.78 C 496.98 235.54 497.08 239.29 496.88 243.04 C 490.81 243.57 484.69 243.48 478.64 242.81 Z" />
<path fill="#c3466b" d=" M 173.66 243.66 C 173.93 243.52 174.47 243.23 174.74 243.09 C 177.75 243.24 180.77 243.40 183.79 243.42 C 184.45 243.62 185.77 244.03 186.43 244.23 C 184.42 245.74 182.52 247.40 180.57 249.00 C 179.31 248.97 178.04 248.94 176.77 248.92 C 178.74 247.24 180.78 245.65 182.86 244.12 C 179.80 243.85 176.74 243.60 173.66 243.66 Z" />
<path fill="#b4496b" d=" M 244.73 243.79 C 245.26 243.65 246.31 243.38 246.84 243.24 C 246.87 244.60 246.91 245.97 246.95 247.34 C 249.27 246.38 251.42 245.08 253.28 243.40 L 253.82 243.41 C 254.46 243.57 255.74 243.88 256.38 244.03 C 254.02 245.58 251.77 247.31 249.50 249.00 C 247.95 248.98 246.41 248.97 244.88 248.97 C 244.82 247.24 244.78 245.51 244.73 243.79 Z" />
<path fill="#dd4d6f" d=" M 246.84 243.24 C 248.98 243.29 251.13 243.34 253.28 243.40 C 251.42 245.08 249.27 246.38 246.95 247.34 C 246.91 245.97 246.87 244.60 246.84 243.24 Z" />
<path fill="#df5972" d=" M 394.07 249.00 C 396.84 246.46 400.00 244.35 403.55 243.09 C 410.32 243.77 417.13 243.07 423.90 243.57 C 424.48 243.83 425.62 244.35 426.19 244.61 C 424.30 246.03 422.43 247.50 420.52 248.90 C 411.70 249.04 402.89 249.00 394.07 249.00 Z" />
<path fill="#f6a4b0" d=" M 426.19 244.61 C 427.02 244.00 427.86 243.40 428.71 242.81 C 440.10 243.81 451.57 243.19 462.98 243.12 L 462.99 244.01 C 462.98 245.66 463.00 247.33 463.02 248.99 C 448.85 248.95 434.68 249.12 420.52 248.90 C 422.43 247.50 424.30 246.03 426.19 244.61 Z" />
<path fill="#e15974" d=" M 464.96 243.18 C 467.69 243.35 470.42 243.52 473.17 243.51 C 470.51 245.11 467.89 246.76 465.20 248.30 C 465.09 246.78 465.01 245.26 464.96 243.74 L 464.96 243.18 Z" />
<path fill="#b34a6d" d=" M 473.17 243.51 L 473.72 243.19 C 474.33 243.45 475.56 243.96 476.18 244.22 C 473.57 245.71 471.05 247.33 468.55 248.99 C 466.70 248.98 464.86 248.99 463.02 248.99 C 463.00 247.33 462.98 245.66 462.99 244.01 C 463.48 243.94 464.46 243.80 464.96 243.74 C 465.01 245.26 465.09 246.78 465.20 248.30 C 467.89 246.76 470.51 245.11 473.17 243.51 Z" />
<path fill="#e05973" d=" M 166.15 248.99 C 168.45 246.94 170.90 245.05 173.66 243.66 C 176.74 243.60 179.80 243.85 182.86 244.12 C 180.78 245.65 178.74 247.24 176.77 248.92 C 173.23 249.05 169.69 249.01 166.15 248.99 Z" />
<path fill="#f17e9d" d=" M 186.43 244.23 C 186.73 244.03 187.33 243.63 187.63 243.43 C 206.66 244.01 225.71 243.31 244.73 243.79 C 244.78 245.51 244.82 247.24 244.88 248.97 C 223.44 249.04 202.01 248.97 180.57 249.00 C 182.52 247.40 184.42 245.74 186.43 244.23 Z" />
<path fill="#f17e9d" d=" M 256.38 244.03 L 256.98 243.68 C 301.64 243.51 346.30 243.76 390.96 243.60 C 393.25 243.59 395.52 243.93 397.79 244.29 C 395.53 245.85 393.30 247.46 390.95 248.87 C 343.81 249.17 296.65 248.91 249.50 249.00 C 251.77 247.31 254.02 245.58 256.38 244.03 Z" />
<path fill="#3a3a3c" d=" M 107.77 264.08 C 107.86 261.92 110.04 260.65 112.02 260.74 C 218.01 260.72 324.01 260.76 430.00 260.72 C 432.22 260.55 435.04 261.03 435.50 263.66 C 440.25 285.47 445.08 307.28 449.80 329.10 C 450.40 331.36 450.82 333.67 451.09 336.00 C 449.77 336.44 448.42 336.81 447.04 336.76 C 330.36 336.74 213.68 336.74 97.00 336.76 C 95.51 336.84 93.71 336.65 93.07 335.06 C 93.27 332.34 93.98 329.71 94.51 327.06 C 99.02 306.08 103.26 285.05 107.77 264.08 Z" />
<path fill="#49494b" d=" M 267.53 275.71 C 271.25 275.60 276.28 274.61 278.71 278.25 C 280.11 280.62 280.86 283.34 281.57 285.99 C 281.10 290.86 277.43 295.03 272.86 296.50 C 269.02 296.94 264.89 295.67 262.58 292.44 C 259.87 289.89 260.55 285.85 260.77 282.53 C 262.09 279.60 264.61 277.07 267.53 275.71 Z" />
<path fill="#000000" d=" M 272.87 277.99 C 274.06 277.73 275.27 277.46 276.51 277.41 C 278.05 278.02 277.49 280.03 277.24 281.27 C 276.07 279.83 274.50 278.82 272.87 277.99 Z" />
<path fill="#bdbec0" d=" M 262.85 283.90 C 264.43 279.94 268.54 277.21 272.87 277.99 C 274.50 278.82 276.07 279.83 277.24 281.27 C 277.56 282.16 277.86 283.07 278.15 283.98 C 273.05 283.99 267.95 284.07 262.85 283.90 Z" />
<path fill="#606062" d=" M 263.20 285.19 C 268.30 285.30 273.43 284.95 278.51 285.43 C 278.64 285.72 278.89 286.31 279.02 286.60 C 273.75 286.96 268.46 286.83 263.19 286.76 C 263.19 286.37 263.20 285.58 263.20 285.19 Z" />
<path fill="#a8a9ad" d=" M 262.90 288.02 C 267.99 287.99 273.09 287.97 278.19 288.04 C 277.10 291.19 274.21 293.34 270.99 293.94 C 267.35 293.71 264.31 291.32 262.90 288.02 Z" />
<path fill="#000000" d=" M 189.22 303.28 C 193.29 301.89 197.76 302.76 202.00 302.51 C 205.94 302.05 210.21 304.93 210.38 309.08 C 210.54 312.68 210.58 316.29 210.35 319.89 C 210.11 323.56 206.52 326.25 202.98 326.20 C 199.35 326.31 195.70 326.38 192.08 326.15 C 188.45 326.03 185.14 322.75 185.30 319.06 C 185.22 315.67 185.17 312.28 185.32 308.89 C 185.26 306.40 187.34 304.57 189.22 303.28 Z" />
<path fill="#000000" d=" M 335.34 303.49 C 337.99 302.08 341.10 302.64 343.99 302.54 C 347.53 302.71 351.68 301.72 354.57 304.39 C 357.42 306.75 357.03 310.72 357.05 314.04 C 356.95 317.37 357.51 321.25 354.99 323.90 C 351.91 327.16 347.02 326.05 343.03 326.28 C 339.28 326.44 334.55 326.27 332.63 322.41 C 330.98 318.54 331.97 314.14 331.76 310.04 C 331.49 307.33 333.10 304.86 335.34 303.49 Z" />
<path fill="#ffffff" d=" M 190.30 306.19 C 193.99 304.75 198.15 305.81 202.03 305.49 C 205.19 304.96 208.04 307.86 207.51 311.01 C 207.08 314.90 209.03 320.42 204.83 322.77 C 200.98 323.71 196.92 323.14 192.99 323.20 C 189.71 323.32 187.53 320.02 188.23 316.97 C 188.71 313.43 186.83 308.63 190.30 306.19 Z" />
<path fill="#ffffff" d=" M 336.37 306.50 C 340.17 304.51 344.81 305.88 348.96 305.50 C 351.99 305.10 354.45 308.07 354.01 310.97 C 353.85 314.11 354.45 317.38 353.56 320.44 C 351.88 324.18 347.24 323.11 343.97 323.27 C 340.74 323.32 336.10 323.77 334.83 319.92 C 334.64 316.61 334.74 313.29 334.76 309.99 C 334.67 308.65 335.37 307.34 336.37 306.50 Z" />
<path fill="#000000" d=" M 142.41 308.49 C 149.96 306.57 158.47 312.08 159.09 320.00 C 160.35 328.03 153.10 335.78 145.02 335.22 C 138.14 335.04 132.03 328.91 132.22 321.97 C 131.74 315.77 136.44 309.90 142.41 308.49 Z" />
<path fill="#000000" d=" M 393.36 308.50 C 400.92 306.54 409.48 312.05 410.08 319.99 C 411.35 327.97 404.13 335.84 396.05 335.20 C 389.15 335.12 383.10 328.90 383.21 322.01 C 382.72 315.79 387.44 309.99 393.36 308.50 Z" />
<path fill="#49494b" d=" M 20.94 312.68 C 24.60 310.26 29.91 309.54 33.57 312.30 C 35.22 313.49 37.53 314.55 37.35 316.96 C 36.22 316.77 35.07 316.79 33.94 317.01 C 31.19 313.42 25.69 312.85 22.30 315.88 C 21.19 315.69 20.07 315.51 18.96 315.34 C 18.04 314.03 20.13 313.26 20.94 312.68 Z" />
<path fill="#ffffff" d=" M 142.46 311.70 C 150.16 308.79 158.71 317.37 155.58 325.02 C 153.41 332.21 143.17 334.66 138.16 328.94 C 132.72 323.80 135.32 313.75 142.46 311.70 Z" />
<path fill="#ffffff" d=" M 393.53 311.68 C 401.21 308.83 409.70 317.40 406.57 325.02 C 404.41 332.23 394.11 334.66 389.13 328.90 C 383.70 323.73 386.36 313.68 393.53 311.68 Z" />
<path fill="#484849" d=" M 508.23 311.15 C 511.81 310.12 515.94 310.41 519.03 312.68 C 525.59 316.98 524.72 328.43 517.51 331.65 C 510.56 336.11 500.26 329.21 501.57 321.07 C 500.95 316.47 504.47 313.04 508.23 311.15 Z" />
<path fill="#bdbec0" d=" M 22.30 315.88 C 25.69 312.85 31.19 313.42 33.94 317.01 C 34.20 317.37 34.72 318.07 34.98 318.43 L 35.08 318.95 L 35.23 319.91 C 30.07 320.09 24.92 319.98 19.76 319.99 C 19.92 319.49 20.23 318.49 20.39 318.00 C 21.02 317.28 21.66 316.58 22.30 315.88 Z" />
<path fill="#bdbec0" d=" M 504.80 319.96 C 505.79 315.26 511.23 312.60 515.59 314.46 C 517.90 315.49 519.37 317.65 520.22 319.96 C 515.08 320.02 509.94 320.02 504.80 319.96 Z" />
<path fill="#3a3a3c" d=" M 18.96 315.34 C 20.07 315.51 21.19 315.69 22.30 315.88 C 21.66 316.58 21.02 317.28 20.39 318.00 L 19.33 318.80 C 19.25 319.33 19.09 320.38 19.01 320.91 L 19.53 321.10 C 24.72 322.64 30.35 321.09 35.69 322.12 C 35.56 322.52 35.30 323.32 35.17 323.72 C 30.10 323.85 25.02 323.66 19.95 323.83 C 20.20 324.36 20.70 325.42 20.95 325.96 C 20.47 326.30 19.51 326.99 19.04 327.33 C 17.87 324.24 17.78 320.91 17.67 317.65 C 17.99 317.07 18.64 315.91 18.96 315.34 Z" />
<path fill="#000000" d=" M 22.08 331.02 C 17.71 328.24 15.61 322.50 17.67 317.65 C 17.78 320.91 17.87 324.24 19.04 327.33 C 19.51 326.99 20.47 326.30 20.95 325.96 C 21.94 327.69 23.63 328.81 25.56 329.26 C 25.08 329.51 24.12 330.02 23.65 330.27 C 23.30 329.91 22.61 329.20 22.26 328.85 L 22.60 330.61 L 22.08 331.02 Z" />
<path fill="#000000" d=" M 19.33 318.80 L 20.39 318.00 C 20.23 318.49 19.92 319.49 19.76 319.99 C 24.92 319.98 30.07 320.09 35.23 319.91 C 35.64 319.89 36.47 319.87 36.88 319.85 C 36.85 319.26 36.80 318.08 36.78 317.49 L 37.91 317.65 C 37.81 321.66 38.82 326.35 35.18 329.21 C 32.49 332.75 27.88 331.67 24.05 331.74 C 23.68 331.55 22.93 331.18 22.56 331.00 C 25.60 330.44 28.73 330.27 31.76 330.99 C 31.29 330.54 30.34 329.63 29.86 329.18 C 32.58 328.60 34.66 326.44 35.17 323.72 C 35.30 323.32 35.56 322.52 35.69 322.12 C 35.76 321.91 35.90 321.48 35.97 321.27 C 30.50 320.93 25.01 321.07 19.53 321.10 L 19.01 320.91 C 19.09 320.38 19.25 319.33 19.33 318.80 Z" />
<path fill="#000000" d=" M 34.98 318.43 L 35.54 318.34 C 35.43 318.49 35.19 318.79 35.08 318.95 L 34.98 318.43 Z" />
<path fill="#000000" d=" M 520.18 320.02 C 520.54 319.00 521.32 317.84 522.44 318.76 L 521.14 320.79 L 521.08 322.24 L 522.45 324.26 C 520.18 325.60 520.37 322.29 520.51 320.86 C 515.55 322.28 510.29 322.08 505.21 321.60 C 510.05 320.32 515.39 322.07 520.18 320.02 Z" />
<path fill="#a8a9ad" d=" M 19.53 321.10 C 25.01 321.07 30.50 320.93 35.97 321.27 C 35.90 321.48 35.76 321.91 35.69 322.12 C 30.35 321.09 24.72 322.64 19.53 321.10 Z" />
<path fill="#4e4e50" d=" M 36.09 323.43 C 39.22 323.80 34.53 326.56 36.09 323.43 Z" />
<path fill="#a8a9ad" d=" M 19.95 323.83 C 25.02 323.66 30.10 323.85 35.17 323.72 C 34.66 326.44 32.58 328.60 29.86 329.18 C 28.44 329.31 26.99 329.45 25.56 329.26 C 23.63 328.81 21.94 327.69 20.95 325.96 C 20.70 325.42 20.20 324.36 19.95 323.83 Z" />
<path fill="#a8a9ad" d=" M 504.82 323.95 C 509.92 323.82 515.03 323.82 520.14 323.94 C 518.87 326.45 516.90 328.96 513.90 329.29 C 509.98 330.31 506.26 327.45 504.82 323.95 Z" />
<path fill="#000000" d=" M 504.31 326.36 C 504.71 326.68 504.71 326.68 504.31 326.36 Z" />
<path fill="#000000" d=" M 520.25 326.36 C 520.69 326.69 520.69 326.69 520.25 326.36 Z" />
</svg>
